<svg width="124" height="47" viewBox="0 0 124 47" fill="none" xmlns="http://www.w3.org/2000/svg">
<path d="M124 23.5L99.25 43.8516V3.1484L124 23.5Z" fill="#C4AAF5"/>
<rect x="9" y="2" width="91" height="43" fill="#C4AAF5"/>
<path d="M33 23.5L8.25 43.8516L8.25 3.1484L33 23.5Z" fill="#222632"/>
<path d="M69.9098 28.15C68.9431 28.15 68.0598 27.9333 67.2598 27.5C66.4598 27.0667 65.7098 26.5833 65.0098 26.05C64.3431 25.4833 63.6764 25 63.0098 24.6C62.3764 24.1667 61.7098 23.95 61.0098 23.95C60.5098 23.95 60.0264 24.0667 59.5598 24.3C59.0931 24.5333 58.6264 24.9667 58.1598 25.6C57.7264 26.2 57.3264 27.0833 56.9598 28.25L54.3098 27.1C55.1764 24.7333 56.2098 23.1 57.4098 22.2C58.6431 21.3 59.8764 20.85 61.1098 20.85C62.1098 20.85 62.9931 21.0667 63.7598 21.5C64.5598 21.9333 65.2931 22.4333 65.9598 23C66.6598 23.5333 67.3264 24.0167 67.9598 24.45C68.6264 24.85 69.3098 25.05 70.0098 25.05C70.5431 25.05 71.0431 24.9333 71.5098 24.7C71.9764 24.4667 72.4264 24.05 72.8598 23.45C73.2931 22.8167 73.6931 21.9167 74.0598 20.75L76.7098 21.95C75.8431 24.2833 74.8098 25.9 73.6098 26.8C72.4098 27.7 71.1764 28.15 69.9098 28.15Z" fill="black"/>
</svg>
