<svg width="100" height="100" viewBox="0 0 100 100" fill="none" xmlns="http://www.w3.org/2000/svg">
<path d="M47.5 1.44337C49.047 0.55021 50.953 0.550212 52.5 1.44338L90.8013 23.5566C92.3483 24.4498 93.3013 26.1004 93.3013 27.8868V72.1133C93.3013 73.8996 92.3483 75.5502 90.8013 76.4434L52.5 98.5566C50.953 99.4498 49.047 99.4498 47.5 98.5566L9.19873 76.4434C7.65172 75.5502 6.69873 73.8996 6.69873 72.1132V27.8867C6.69873 26.1004 7.65173 24.4498 9.19873 23.5566L47.5 1.44337Z" fill="#171A21"/>
<path d="M54.0163 47.64L46.0963 46.04C40.0963 44.84 37.7763 41.88 37.7763 37.96C37.7763 33.88 40.9763 29.32 48.9763 29.32C56.4963 29.32 60.0963 32.92 60.8963 37.88H69.6163C68.4963 28.12 61.1363 22.28 48.9763 22.28C36.3363 22.28 29.1363 28.84 29.1363 37.72C29.1363 46.84 35.2963 51 44.6562 52.84L52.4963 54.36C58.4163 55.56 62.3363 57.72 62.3363 63.4C62.3363 68.6 57.9363 72.6 49.6963 72.6C40.9763 72.6 37.6163 67.72 36.6563 62.04H27.9363C28.8163 72.76 36.2563 79.72 49.6163 79.72C62.4163 79.72 71.1363 73.64 71.1363 63.4C71.1363 53.96 65.2963 49.88 54.0163 47.64Z" fill="white"/>
</svg>
